<svg xmlns="http://www.w3.org/2000/svg" xmlns:xlink="http://www.w3.org/1999/xlink" width="1640" zoomAndPan="magnify" viewBox="0 0 1230 693.000001" height="924" preserveAspectRatio="xMidYMid meet" version="1.0"><defs><g/><clipPath id="c6cbf6a02d"><path d="M 0.886719 0 L 1229.113281 0 L 1229.113281 692 L 0.886719 692 Z M 0.886719 0 " clip-rule="nonzero"/></clipPath></defs><g clip-path="url(#c6cbf6a02d)"><path fill="#ffffff" d="M 0.886719 0 L 1229.113281 0 L 1229.113281 699.492188 L 0.886719 699.492188 Z M 0.886719 0 " fill-opacity="1" fill-rule="nonzero"/><path fill="#ffffff" d="M 0.886719 0 L 1229.113281 0 L 1229.113281 692 L 0.886719 692 Z M 0.886719 0 " fill-opacity="1" fill-rule="nonzero"/><path fill="#ffffff" d="M 0.886719 0 L 1229.113281 0 L 1229.113281 692 L 0.886719 692 Z M 0.886719 0 " fill-opacity="1" fill-rule="nonzero"/></g><g fill="#eb794f" fill-opacity="1"><g transform="translate(242.232986, 323.116531)"><g><path d="M 10.308594 -7.199219 C 15.296875 -11.757812 20.433594 -15.671875 26.585938 -19.25 C 27.882812 -19.992188 28.117188 -21.140625 27.234375 -22.335938 C 21.765625 -30.015625 17.101562 -38.074219 12.664062 -46.410156 C 6.867188 -57.324219 2.644531 -68.75 0.789062 -73.894531 C 0.152344 -75.488281 -1.050781 -75.792969 -2.296875 -74.542969 C -3.472656 -73.34375 -4.773438 -72.164062 -7.089844 -70.453125 C -9.683594 -68.53125 -11.3125 -67.648438 -13.152344 -66.613281 C -14.5 -65.941406 -14.734375 -64.789062 -13.730469 -63.578125 C -10.75 -59.703125 -3.980469 -50.703125 1.582031 -41.136719 C 5.378906 -34.394531 7.292969 -30.050781 10.398438 -24.097656 C 5.609375 -28.804688 2.011719 -31.902344 -3.328125 -37.503906 C -10.855469 -45.613281 -17.484375 -54.714844 -20.273438 -58.628906 C -21.1875 -60.011719 -22.359375 -60.125 -23.394531 -59.03125 C -24.921875 -57.574219 -26.238281 -56.273438 -28.835938 -54.351562 C -31.152344 -52.636719 -32.65625 -51.738281 -34.144531 -50.960938 C -35.707031 -50.132812 -35.765625 -48.894531 -34.359375 -47.871094 C -29.976562 -44.597656 -20.351562 -37.171875 -11.609375 -28.441406 C -4.929688 -21.765625 1.472656 -14.882812 7.167969 -7.480469 C 8.050781 -6.289062 9.152344 -6.125 10.308594 -7.199219 Z M 10.308594 -7.199219 "/></g></g></g><g fill="#eb794f" fill-opacity="1"><g transform="translate(277.323116, 297.389036)"><g><path d="M 3.398438 -1.152344 C 6.925781 -3.117188 11.972656 -5.53125 17.039062 -7.671875 C 21.863281 -9.710938 27.121094 -11.835938 31.863281 -13.175781 C 33.378906 -13.628906 33.796875 -14.65625 33.023438 -16.035156 C 31.195312 -19.242188 29.109375 -23.953125 27.722656 -27.914062 C 27.121094 -29.558594 26.457031 -29.558594 25.464844 -28.097656 C 21.589844 -21.34375 14.847656 -18.6875 11.886719 -17.625 C 11.851562 -17.703125 7.582031 -25.566406 4.699219 -31.265625 C 7.59375 -32.488281 11.585938 -33.132812 14.40625 -33.1875 C 16.125 -33.15625 16.632812 -33.75 15.792969 -35.289062 C 15.101562 -36.703125 14.421875 -38.308594 13.777344 -39.839844 C 13.0625 -41.527344 12.496094 -43.089844 11.933594 -44.648438 C 11.414062 -46.328125 10.667969 -46.296875 9.539062 -45.15625 C 7.683594 -43.042969 4.554688 -40.585938 1.417969 -39.261719 C -0.625 -45.21875 -2.859375 -52.519531 -2.859375 -52.519531 C -0.113281 -53.871094 5.554688 -56.832031 12.6875 -55.203125 C 14.621094 -54.882812 15.335938 -55.660156 14.589844 -57.425781 C 12.410156 -61.910156 11.257812 -64.644531 9.96875 -68.363281 C 9.484375 -69.957031 8.46875 -70.570312 7.121094 -69.71875 C 0.925781 -65.773438 -11.8125 -60.488281 -20.582031 -57.917969 C -22.179688 -57.433594 -22.597656 -56.40625 -21.628906 -55.011719 C -18.890625 -50.769531 -12.785156 -41.03125 -8.03125 -29.773438 C -3.238281 -18.4375 -0.546875 -7.351562 0.585938 -2.425781 C 0.910156 -0.761719 1.9375 -0.34375 3.398438 -1.152344 Z M 3.398438 -1.152344 "/></g></g></g><g fill="#eb794f" fill-opacity="1"><g transform="translate(311.47262, 282.888724)"><g><path d="M 3.652344 -0.40625 C 7.523438 -1.5625 12.96875 -2.832031 18.035156 -3.765625 C 23.699219 -4.808594 28.539062 -5.523438 33.011719 -5.8125 C 34.675781 -5.941406 35.234375 -6.753906 34.847656 -8.371094 C 33.730469 -12.511719 32.882812 -17.59375 32.273438 -22.363281 C 32.058594 -24.011719 30.574219 -24.359375 29.304688 -23.058594 C 23.992188 -17.199219 17.582031 -16.816406 15.0625 -16.53125 C 14.078125 -19.457031 12.210938 -24.792969 10.691406 -33.035156 C 8.507812 -44.878906 8.078125 -53.5 8.097656 -61.578125 C 8.070312 -63.171875 7.140625 -63.886719 5.625 -63.429688 C 3.800781 -62.738281 2.03125 -62.238281 -1.0625 -61.667969 C -3.980469 -61.128906 -5.8125 -60.96875 -7.492188 -60.925781 C -9.171875 -60.882812 -9.785156 -59.882812 -9.226562 -58.300781 C -7.46875 -53.566406 -3.625 -42.824219 -1.414062 -30.804688 C 0.847656 -18.527344 1.167969 -9.089844 1.097656 -2.242188 C 1.136719 -0.566406 1.96875 0.0820312 3.652344 -0.40625 Z M 3.652344 -0.40625 "/></g></g></g><g fill="#eb794f" fill-opacity="1"><g transform="translate(346.264283, 275.787518)"><g><path d="M 12.535156 1.011719 C 19.28125 0.671875 25.738281 0.925781 32.753906 2.085938 C 34.226562 2.335938 35.140625 1.597656 35.21875 0.117188 C 35.894531 -9.289062 37.429688 -18.472656 39.316406 -27.722656 C 41.792969 -39.832031 45.8125 -51.332031 47.65625 -56.476562 C 48.179688 -58.109375 47.449219 -59.109375 45.691406 -58.941406 C 44.019531 -58.769531 42.269531 -58.6875 39.390625 -58.839844 C 36.167969 -59.007812 34.351562 -59.367188 32.273438 -59.738281 C 30.804688 -60.082031 29.890625 -59.34375 29.894531 -57.769531 C 29.722656 -52.882812 29.214844 -41.632812 27.414062 -30.714844 C 26.046875 -23.09375 24.757812 -18.53125 23.359375 -11.960938 C 22.664062 -18.640625 21.863281 -23.316406 21.3125 -31.039062 C 20.671875 -42.085938 21.355469 -53.324219 21.695312 -58.113281 C 21.871094 -59.765625 21.042969 -60.597656 19.546875 -60.414062 C 17.441406 -60.261719 15.59375 -60.097656 12.371094 -60.269531 C 9.492188 -60.421875 7.757812 -60.6875 6.117188 -61.039062 C 4.386719 -61.390625 3.550781 -60.472656 3.988281 -58.789062 C 5.28125 -53.476562 7.972656 -41.621094 9.15625 -29.320312 C 10.058594 -19.921875 10.609375 -10.539062 10.289062 -1.203125 C 10.210938 0.277344 10.957031 1.105469 12.535156 1.011719 Z M 12.535156 1.011719 "/></g></g></g><g fill="#eb794f" fill-opacity="1"><g transform="translate(389.703361, 278.291063)"><g><path d="M 3.355469 1.277344 C 7.324219 2.007812 12.753906 3.355469 18.023438 4.933594 C 23.039062 6.433594 28.449219 8.140625 32.960938 10.125 C 34.414062 10.742188 35.390625 10.214844 35.675781 8.660156 C 36.308594 5.023438 37.699219 0.0625 39.148438 -3.875 C 39.734375 -5.523438 39.222656 -5.949219 37.527344 -5.453125 C 30.238281 -2.710938 23.347656 -4.957031 20.386719 -6.023438 C 20.410156 -6.105469 22.125 -14.886719 23.53125 -21.117188 C 26.542969 -20.214844 30.03125 -18.171875 32.238281 -16.417969 C 33.546875 -15.300781 34.3125 -15.433594 34.648438 -17.15625 C 35.011719 -18.6875 35.511719 -20.359375 35.988281 -21.949219 C 36.511719 -23.703125 37.070312 -25.269531 37.628906 -26.832031 C 38.296875 -28.453125 37.703125 -28.90625 36.105469 -28.746094 C 33.332031 -28.300781 29.351562 -28.394531 26.089844 -29.371094 C 28.308594 -35.265625 31.238281 -42.316406 31.238281 -42.316406 C 34.214844 -41.609375 40.46875 -40.289062 44.929688 -34.488281 C 46.21875 -33.011719 47.265625 -33.152344 47.816406 -34.992188 C 48.988281 -39.835938 49.839844 -42.679688 51.214844 -46.367188 C 51.855469 -47.90625 51.464844 -49.027344 49.882812 -49.226562 C 42.589844 -50.128906 29.402344 -54.164062 21.003906 -57.765625 C 19.464844 -58.410156 18.488281 -57.882812 18.347656 -56.191406 C 17.757812 -51.175781 16.265625 -39.777344 12.765625 -28.070312 C 9.238281 -16.277344 4.257812 -6.015625 1.996094 -1.5 C 1.1875 -0.0078125 1.714844 0.96875 3.355469 1.277344 Z M 3.355469 1.277344 "/></g></g></g><g fill="#eb794f" fill-opacity="1"><g transform="translate(424.919688, 288.30755)"><g><path d="M 13.523438 8 C 14.9375 8.515625 16.386719 9.148438 18.730469 10.503906 C 21.152344 11.898438 22.5 12.878906 23.882812 13.976562 C 25.1875 15.03125 26.261719 14.742188 26.863281 13.175781 C 28.742188 8.519531 33.082031 -1.976562 39.234375 -12.636719 C 43.027344 -19.21875 46.882812 -24.851562 50.027344 -29.085938 C 52.65625 -27.871094 55.4375 -25.359375 58.347656 -21.667969 C 59.402344 -20.351562 60.660156 -20.433594 61.410156 -21.914062 C 62.972656 -25.144531 64.488281 -27.597656 66.164062 -30.15625 C 67.101562 -31.429688 66.664062 -32.589844 65.289062 -33.179688 C 62.046875 -34.546875 60.234375 -35.59375 56.679688 -37.644531 L 41.785156 -46.234375 C 38.304688 -48.242188 36.414062 -49.332031 33.609375 -51.453125 C 32.410156 -52.347656 31.1875 -52.144531 30.507812 -50.621094 C 29.164062 -47.769531 28.085938 -46.074219 25.765625 -42.574219 C 24.820312 -41.105469 25.378906 -39.976562 27.042969 -39.722656 C 31.890625 -39.042969 35.492188 -37.773438 37.855469 -36.105469 C 35.769531 -31.265625 32.820312 -25.105469 28.800781 -18.65625 C 22.347656 -8.171875 15.585938 0.929688 12.648438 4.976562 C 11.589844 6.28125 11.957031 7.398438 13.523438 8 Z M 13.523438 8 "/></g></g></g><g fill="#eb794f" fill-opacity="1"><g transform="translate(461.939694, 311.029995)"><g/></g></g><g fill="#eb794f" fill-opacity="1"><g transform="translate(493.76051, 319.315192)"><g><path d="M 28.898438 12.351562 C 30.195312 12.875 31.183594 12.523438 31.917969 11.40625 C 37.136719 3.160156 41.539062 -3.0625 45.289062 -8.605469 C 49.105469 -14.3125 52.378906 -18.449219 53.683594 -20.273438 L 53.4375 -19.433594 C 52.679688 -17.101562 51.925781 -14.769531 50.945312 -12.34375 C 46.359375 -1.015625 40.519531 8.765625 37.761719 13.019531 C 36.753906 14.585938 37.300781 15.5625 38.933594 15.941406 C 40.570312 16.320312 42.417969 16.878906 45.085938 17.960938 C 48.566406 19.367188 48.984375 19.726562 51.203125 21 C 52.558594 21.832031 53.777344 21.382812 54.140625 19.550781 C 55.132812 14.773438 57.738281 3.679688 62.351562 -7.726562 C 66.96875 -19.136719 72.8125 -28.921875 75.421875 -33.042969 C 76.433594 -34.609375 75.871094 -35.78125 74.316406 -36.125 C 71.835938 -36.753906 71.285156 -36.789062 67.808594 -38.195312 C 64.328125 -39.601562 61.675781 -40.957031 59.425781 -42.152344 C 58.359375 -42.769531 57.238281 -42.566406 56.554688 -41.335938 C 52.898438 -34.625 44.832031 -23.761719 36.207031 -11.058594 C 39.171875 -26.996094 40.84375 -39.972656 42.71875 -46.933594 C 43.078125 -48.292969 42.613281 -49.234375 41.253906 -49.597656 C 38.453125 -50.355469 35.199219 -51.386719 32.042969 -52.664062 C 29.292969 -53.777344 27.65625 -54.628906 26.136719 -55.523438 C 24.78125 -56.355469 23.722656 -55.84375 23.34375 -54.207031 C 22.289062 -49.265625 19.683594 -38.175781 15.097656 -26.847656 C 10.484375 -15.4375 4.675781 -5.734375 2.03125 -1.53125 C 1.019531 0.0351562 1.535156 1.09375 3.089844 1.4375 C 4.808594 1.851562 6.570312 2.375 9.324219 3.488281 C 12.640625 4.832031 13.546875 5.386719 15.4375 6.527344 C 16.957031 7.425781 17.996094 6.71875 18.34375 5.164062 C 19.289062 0.269531 21.925781 -10.902344 26.507812 -22.230469 C 27.523438 -24.738281 28.632812 -27.019531 29.828125 -29.269531 L 29.925781 -29.511719 C 29.714844 -25.734375 29.242188 -21.3125 28.214844 -15.511719 C 27.320312 -10.039062 25.429688 0.214844 23.699219 7.988281 C 23.417969 9.378906 23.800781 10.289062 25.179688 10.847656 Z M 28.898438 12.351562 "/></g></g></g><g fill="#eb794f" fill-opacity="1"><g transform="translate(566.444861, 344.8096)"><g><path d="M 22.109375 3.503906 C 35.398438 4.816406 44.132812 -4.582031 46.273438 -26.210938 C 48.234375 -46.011719 41.671875 -58.589844 28.382812 -59.90625 C 15.089844 -61.222656 6.105469 -50.179688 4.144531 -30.378906 C 2.003906 -8.75 8.816406 2.1875 22.109375 3.503906 Z M 23.222656 -8.667969 C 18.96875 -9.085938 17.03125 -17.875 18.097656 -28.644531 C 19.28125 -40.632812 22.835938 -48.175781 27.089844 -47.753906 C 31.347656 -47.332031 33.355469 -39.242188 32.167969 -27.253906 C 31.101562 -16.484375 27.480469 -8.246094 23.222656 -8.667969 Z M 23.222656 -8.667969 "/></g></g></g><g fill="#eb794f" fill-opacity="1"><g transform="translate(627.813608, 348.742628)"><g><path d="M 22.285156 -2.101562 C 35.484375 -4.132812 41.609375 -15.40625 38.304688 -36.890625 C 35.28125 -56.558594 25.796875 -67.109375 12.597656 -65.082031 C -0.601562 -63.050781 -6.5625 -50.125 -3.535156 -30.453125 C -0.230469 -8.972656 9.085938 -0.0742188 22.285156 -2.101562 Z M 20.339844 -14.167969 C 16.113281 -13.515625 12.050781 -21.546875 10.40625 -32.246094 C 8.578125 -44.152344 10.144531 -52.339844 14.371094 -52.988281 C 18.597656 -53.640625 22.550781 -46.300781 24.382812 -34.394531 C 26.027344 -23.695312 24.566406 -14.816406 20.339844 -14.167969 Z M 20.339844 -14.167969 "/></g></g></g><g fill="#eb794f" fill-opacity="1"><g transform="translate(688.578284, 337.341309)"><g><path d="M 15.546875 -6.496094 C 17.136719 -7 17.585938 -8.148438 16.601562 -9.53125 C 13.847656 -13.660156 7.628906 -23.328125 2.742188 -34.527344 C 2.183594 -35.808594 1.625 -37.089844 1.179688 -38.324219 C 2.945312 -36.902344 5.007812 -35.230469 7.625 -32.945312 C 15.105469 -26.496094 22.058594 -16.671875 24.777344 -12.621094 C 25.609375 -11.367188 26.691406 -11.074219 27.785156 -11.839844 C 29.441406 -12.847656 31.097656 -13.855469 34.054688 -15.144531 C 36.9375 -16.402344 38.6875 -16.976562 40.585938 -17.425781 C 42.09375 -17.894531 42.546875 -19.042969 41.5625 -20.421875 C 38.808594 -24.554688 32.589844 -34.21875 27.703125 -45.421875 C 21.960938 -59.011719 20.507812 -65.613281 18.847656 -72.699219 C 18.421875 -74.324219 17.390625 -74.730469 16.019531 -73.941406 C 14.320312 -72.816406 12.707031 -71.925781 9.828125 -70.667969 C 7.109375 -69.480469 5.359375 -68.90625 3.734375 -68.484375 C 2.109375 -68.0625 1.738281 -66.945312 2.640625 -65.53125 C 5.429688 -61.320312 11.613281 -51.734375 16.503906 -40.53125 L 17.886719 -37.136719 C 14.917969 -39.363281 11.691406 -41.957031 8.507812 -44.664062 C 3.425781 -49.113281 -2.207031 -56.558594 -4.546875 -62.585938 C -5.210938 -64.105469 -6.164062 -64.546875 -7.5 -63.675781 C -9.554688 -62.496094 -11.613281 -61.3125 -14.652344 -59.984375 C -17.453125 -58.761719 -19.441406 -58.085938 -21.304688 -57.558594 C -22.851562 -57.167969 -23.300781 -56.019531 -22.320312 -54.640625 C -19.527344 -50.429688 -13.347656 -40.839844 -8.457031 -29.640625 C -3.570312 -18.441406 -0.746094 -7.386719 0.441406 -2.480469 C 0.785156 -0.820312 1.933594 -0.367188 3.269531 -1.238281 C 4.765625 -2.175781 6.375 -3.066406 9.09375 -4.253906 C 11.976562 -5.511719 13.726562 -6.085938 15.546875 -6.496094 Z M 15.546875 -6.496094 "/></g></g></g><g fill="#8c3839" fill-opacity="1"><g transform="translate(257.262904, 411.968197)"><g><path d="M 10.308594 -7.199219 C 15.296875 -11.757812 20.433594 -15.671875 26.585938 -19.25 C 27.882812 -19.992188 28.117188 -21.140625 27.234375 -22.335938 C 21.765625 -30.015625 17.101562 -38.074219 12.664062 -46.410156 C 6.867188 -57.324219 2.644531 -68.75 0.789062 -73.894531 C 0.152344 -75.488281 -1.050781 -75.792969 -2.296875 -74.542969 C -3.472656 -73.34375 -4.773438 -72.164062 -7.089844 -70.453125 C -9.683594 -68.53125 -11.3125 -67.648438 -13.152344 -66.613281 C -14.5 -65.941406 -14.734375 -64.789062 -13.730469 -63.578125 C -10.75 -59.703125 -3.980469 -50.703125 1.582031 -41.136719 C 5.378906 -34.394531 7.292969 -30.050781 10.398438 -24.097656 C 5.609375 -28.804688 2.011719 -31.902344 -3.328125 -37.503906 C -10.855469 -45.613281 -17.484375 -54.714844 -20.273438 -58.628906 C -21.1875 -60.011719 -22.359375 -60.125 -23.394531 -59.03125 C -24.921875 -57.574219 -26.238281 -56.273438 -28.835938 -54.351562 C -31.152344 -52.636719 -32.65625 -51.738281 -34.144531 -50.960938 C -35.707031 -50.132812 -35.765625 -48.894531 -34.359375 -47.871094 C -29.976562 -44.597656 -20.351562 -37.171875 -11.609375 -28.441406 C -4.929688 -21.765625 1.472656 -14.882812 7.167969 -7.480469 C 8.050781 -6.289062 9.152344 -6.125 10.308594 -7.199219 Z M 10.308594 -7.199219 "/></g></g></g><g fill="#8c3839" fill-opacity="1"><g transform="translate(292.353034, 386.240701)"><g><path d="M 3.398438 -1.152344 C 6.925781 -3.117188 11.972656 -5.53125 17.039062 -7.671875 C 21.863281 -9.710938 27.121094 -11.835938 31.863281 -13.175781 C 33.378906 -13.628906 33.796875 -14.65625 33.023438 -16.035156 C 31.195312 -19.242188 29.109375 -23.953125 27.722656 -27.914062 C 27.121094 -29.558594 26.457031 -29.558594 25.464844 -28.097656 C 21.589844 -21.34375 14.847656 -18.6875 11.886719 -17.625 C 11.851562 -17.703125 7.582031 -25.566406 4.699219 -31.265625 C 7.59375 -32.488281 11.585938 -33.132812 14.40625 -33.1875 C 16.125 -33.15625 16.632812 -33.75 15.792969 -35.289062 C 15.101562 -36.703125 14.421875 -38.308594 13.777344 -39.839844 C 13.0625 -41.527344 12.496094 -43.089844 11.933594 -44.648438 C 11.414062 -46.328125 10.667969 -46.296875 9.539062 -45.15625 C 7.683594 -43.042969 4.554688 -40.585938 1.417969 -39.261719 C -0.625 -45.21875 -2.859375 -52.519531 -2.859375 -52.519531 C -0.113281 -53.871094 5.554688 -56.832031 12.6875 -55.203125 C 14.621094 -54.882812 15.335938 -55.660156 14.589844 -57.425781 C 12.410156 -61.910156 11.257812 -64.644531 9.96875 -68.363281 C 9.484375 -69.957031 8.46875 -70.570312 7.121094 -69.71875 C 0.925781 -65.773438 -11.8125 -60.488281 -20.582031 -57.917969 C -22.179688 -57.433594 -22.597656 -56.40625 -21.628906 -55.011719 C -18.890625 -50.769531 -12.785156 -41.03125 -8.03125 -29.773438 C -3.238281 -18.4375 -0.546875 -7.351562 0.585938 -2.425781 C 0.910156 -0.761719 1.9375 -0.34375 3.398438 -1.152344 Z M 3.398438 -1.152344 "/></g></g></g><g fill="#8c3839" fill-opacity="1"><g transform="translate(326.502524, 371.74039)"><g><path d="M 3.652344 -0.40625 C 7.523438 -1.5625 12.96875 -2.832031 18.035156 -3.765625 C 23.699219 -4.808594 28.539062 -5.523438 33.011719 -5.8125 C 34.675781 -5.941406 35.234375 -6.753906 34.847656 -8.371094 C 33.730469 -12.511719 32.882812 -17.59375 32.273438 -22.363281 C 32.058594 -24.011719 30.574219 -24.359375 29.304688 -23.058594 C 23.992188 -17.199219 17.582031 -16.816406 15.0625 -16.53125 C 14.078125 -19.457031 12.210938 -24.792969 10.691406 -33.035156 C 8.507812 -44.878906 8.078125 -53.5 8.097656 -61.578125 C 8.070312 -63.171875 7.140625 -63.886719 5.625 -63.429688 C 3.800781 -62.738281 2.03125 -62.238281 -1.0625 -61.667969 C -3.980469 -61.128906 -5.8125 -60.96875 -7.492188 -60.925781 C -9.171875 -60.882812 -9.785156 -59.882812 -9.226562 -58.300781 C -7.46875 -53.566406 -3.625 -42.824219 -1.414062 -30.804688 C 0.847656 -18.527344 1.167969 -9.089844 1.097656 -2.242188 C 1.136719 -0.566406 1.96875 0.0820312 3.652344 -0.40625 Z M 3.652344 -0.40625 "/></g></g></g><g fill="#8c3839" fill-opacity="1"><g transform="translate(361.294185, 364.639201)"><g><path d="M 12.535156 1.011719 C 19.28125 0.671875 25.738281 0.925781 32.753906 2.085938 C 34.226562 2.335938 35.140625 1.597656 35.21875 0.117188 C 35.894531 -9.289062 37.429688 -18.472656 39.316406 -27.722656 C 41.792969 -39.832031 45.8125 -51.332031 47.65625 -56.476562 C 48.179688 -58.109375 47.449219 -59.109375 45.691406 -58.941406 C 44.019531 -58.769531 42.269531 -58.6875 39.390625 -58.839844 C 36.167969 -59.007812 34.351562 -59.367188 32.273438 -59.738281 C 30.804688 -60.082031 29.890625 -59.34375 29.894531 -57.769531 C 29.722656 -52.882812 29.214844 -41.632812 27.414062 -30.714844 C 26.046875 -23.09375 24.757812 -18.53125 23.359375 -11.960938 C 22.664062 -18.640625 21.863281 -23.316406 21.3125 -31.039062 C 20.671875 -42.085938 21.355469 -53.324219 21.695312 -58.113281 C 21.871094 -59.765625 21.042969 -60.597656 19.546875 -60.414062 C 17.441406 -60.261719 15.59375 -60.097656 12.371094 -60.269531 C 9.492188 -60.421875 7.757812 -60.6875 6.117188 -61.039062 C 4.386719 -61.390625 3.550781 -60.472656 3.988281 -58.789062 C 5.28125 -53.476562 7.972656 -41.621094 9.15625 -29.320312 C 10.058594 -19.921875 10.609375 -10.539062 10.289062 -1.203125 C 10.210938 0.277344 10.957031 1.105469 12.535156 1.011719 Z M 12.535156 1.011719 "/></g></g></g><g fill="#8c3839" fill-opacity="1"><g transform="translate(404.733272, 367.142729)"><g><path d="M 3.355469 1.277344 C 7.324219 2.007812 12.753906 3.355469 18.023438 4.933594 C 23.039062 6.433594 28.449219 8.140625 32.960938 10.125 C 34.414062 10.742188 35.390625 10.214844 35.675781 8.660156 C 36.308594 5.023438 37.699219 0.0625 39.148438 -3.875 C 39.734375 -5.523438 39.222656 -5.949219 37.527344 -5.453125 C 30.238281 -2.710938 23.347656 -4.957031 20.386719 -6.023438 C 20.410156 -6.105469 22.125 -14.886719 23.53125 -21.117188 C 26.542969 -20.214844 30.03125 -18.171875 32.238281 -16.417969 C 33.546875 -15.300781 34.3125 -15.433594 34.648438 -17.15625 C 35.011719 -18.6875 35.511719 -20.359375 35.988281 -21.949219 C 36.511719 -23.703125 37.070312 -25.269531 37.628906 -26.832031 C 38.296875 -28.453125 37.703125 -28.90625 36.105469 -28.746094 C 33.332031 -28.300781 29.351562 -28.394531 26.089844 -29.371094 C 28.308594 -35.265625 31.238281 -42.316406 31.238281 -42.316406 C 34.214844 -41.609375 40.46875 -40.289062 44.929688 -34.488281 C 46.21875 -33.011719 47.265625 -33.152344 47.816406 -34.992188 C 48.988281 -39.835938 49.839844 -42.679688 51.214844 -46.367188 C 51.855469 -47.90625 51.464844 -49.027344 49.882812 -49.226562 C 42.589844 -50.128906 29.402344 -54.164062 21.003906 -57.765625 C 19.464844 -58.410156 18.488281 -57.882812 18.347656 -56.191406 C 17.757812 -51.175781 16.265625 -39.777344 12.765625 -28.070312 C 9.238281 -16.277344 4.257812 -6.015625 1.996094 -1.5 C 1.1875 -0.0078125 1.714844 0.96875 3.355469 1.277344 Z M 3.355469 1.277344 "/></g></g></g><g fill="#8c3839" fill-opacity="1"><g transform="translate(439.9496, 377.159216)"><g><path d="M 13.523438 8 C 14.9375 8.515625 16.386719 9.148438 18.730469 10.503906 C 21.152344 11.898438 22.5 12.878906 23.882812 13.976562 C 25.1875 15.03125 26.261719 14.742188 26.863281 13.175781 C 28.742188 8.519531 33.082031 -1.976562 39.234375 -12.636719 C 43.027344 -19.21875 46.882812 -24.851562 50.027344 -29.085938 C 52.65625 -27.871094 55.4375 -25.359375 58.347656 -21.667969 C 59.402344 -20.351562 60.660156 -20.433594 61.410156 -21.914062 C 62.972656 -25.144531 64.488281 -27.597656 66.164062 -30.15625 C 67.101562 -31.429688 66.664062 -32.589844 65.289062 -33.179688 C 62.046875 -34.546875 60.234375 -35.59375 56.679688 -37.644531 L 41.785156 -46.234375 C 38.304688 -48.242188 36.414062 -49.332031 33.609375 -51.453125 C 32.410156 -52.347656 31.1875 -52.144531 30.507812 -50.621094 C 29.164062 -47.769531 28.085938 -46.074219 25.765625 -42.574219 C 24.820312 -41.105469 25.378906 -39.976562 27.042969 -39.722656 C 31.890625 -39.042969 35.492188 -37.773438 37.855469 -36.105469 C 35.769531 -31.265625 32.820312 -25.105469 28.800781 -18.65625 C 22.347656 -8.171875 15.585938 0.929688 12.648438 4.976562 C 11.589844 6.28125 11.957031 7.398438 13.523438 8 Z M 13.523438 8 "/></g></g></g><g fill="#8c3839" fill-opacity="1"><g transform="translate(476.969557, 399.881646)"><g/></g></g><g fill="#8c3839" fill-opacity="1"><g transform="translate(508.790445, 408.16686)"><g><path d="M 28.898438 12.351562 C 30.195312 12.875 31.183594 12.523438 31.917969 11.40625 C 37.136719 3.160156 41.539062 -3.0625 45.289062 -8.605469 C 49.105469 -14.3125 52.378906 -18.449219 53.683594 -20.273438 L 53.4375 -19.433594 C 52.679688 -17.101562 51.925781 -14.769531 50.945312 -12.34375 C 46.359375 -1.015625 40.519531 8.765625 37.761719 13.019531 C 36.753906 14.585938 37.300781 15.5625 38.933594 15.941406 C 40.570312 16.320312 42.417969 16.878906 45.085938 17.960938 C 48.566406 19.367188 48.984375 19.726562 51.203125 21 C 52.558594 21.832031 53.777344 21.382812 54.140625 19.550781 C 55.132812 14.773438 57.738281 3.679688 62.351562 -7.726562 C 66.96875 -19.136719 72.8125 -28.921875 75.421875 -33.042969 C 76.433594 -34.609375 75.871094 -35.78125 74.316406 -36.125 C 71.835938 -36.753906 71.285156 -36.789062 67.808594 -38.195312 C 64.328125 -39.601562 61.675781 -40.957031 59.425781 -42.152344 C 58.359375 -42.769531 57.238281 -42.566406 56.554688 -41.335938 C 52.898438 -34.625 44.832031 -23.761719 36.207031 -11.058594 C 39.171875 -26.996094 40.84375 -39.972656 42.71875 -46.933594 C 43.078125 -48.292969 42.613281 -49.234375 41.253906 -49.597656 C 38.453125 -50.355469 35.199219 -51.386719 32.042969 -52.664062 C 29.292969 -53.777344 27.65625 -54.628906 26.136719 -55.523438 C 24.78125 -56.355469 23.722656 -55.84375 23.34375 -54.207031 C 22.289062 -49.265625 19.683594 -38.175781 15.097656 -26.847656 C 10.484375 -15.4375 4.675781 -5.734375 2.03125 -1.53125 C 1.019531 0.0351562 1.535156 1.09375 3.089844 1.4375 C 4.808594 1.851562 6.570312 2.375 9.324219 3.488281 C 12.640625 4.832031 13.546875 5.386719 15.4375 6.527344 C 16.957031 7.425781 17.996094 6.71875 18.34375 5.164062 C 19.289062 0.269531 21.925781 -10.902344 26.507812 -22.230469 C 27.523438 -24.738281 28.632812 -27.019531 29.828125 -29.269531 L 29.925781 -29.511719 C 29.714844 -25.734375 29.242188 -21.3125 28.214844 -15.511719 C 27.320312 -10.039062 25.429688 0.214844 23.699219 7.988281 C 23.417969 9.378906 23.800781 10.289062 25.179688 10.847656 Z M 28.898438 12.351562 "/></g></g></g><g fill="#8c3839" fill-opacity="1"><g transform="translate(581.474868, 433.661266)"><g><path d="M 22.109375 3.503906 C 35.398438 4.816406 44.132812 -4.582031 46.273438 -26.210938 C 48.234375 -46.011719 41.671875 -58.589844 28.382812 -59.90625 C 15.089844 -61.222656 6.105469 -50.179688 4.144531 -30.378906 C 2.003906 -8.75 8.816406 2.1875 22.109375 3.503906 Z M 23.222656 -8.667969 C 18.96875 -9.085938 17.03125 -17.875 18.097656 -28.644531 C 19.28125 -40.632812 22.835938 -48.175781 27.089844 -47.753906 C 31.347656 -47.332031 33.355469 -39.242188 32.167969 -27.253906 C 31.101562 -16.484375 27.480469 -8.246094 23.222656 -8.667969 Z M 23.222656 -8.667969 "/></g></g></g><g fill="#8c3839" fill-opacity="1"><g transform="translate(642.843543, 437.594294)"><g><path d="M 22.285156 -2.101562 C 35.484375 -4.132812 41.609375 -15.40625 38.304688 -36.890625 C 35.28125 -56.558594 25.796875 -67.109375 12.597656 -65.082031 C -0.601562 -63.050781 -6.5625 -50.125 -3.535156 -30.453125 C -0.230469 -8.972656 9.085938 -0.0742188 22.285156 -2.101562 Z M 20.339844 -14.167969 C 16.113281 -13.515625 12.050781 -21.546875 10.40625 -32.246094 C 8.578125 -44.152344 10.144531 -52.339844 14.371094 -52.988281 C 18.597656 -53.640625 22.550781 -46.300781 24.382812 -34.394531 C 26.027344 -23.695312 24.566406 -14.816406 20.339844 -14.167969 Z M 20.339844 -14.167969 "/></g></g></g><g fill="#8c3839" fill-opacity="1"><g transform="translate(703.608219, 426.192946)"><g><path d="M 15.546875 -6.496094 C 17.136719 -7 17.585938 -8.148438 16.601562 -9.53125 C 13.847656 -13.660156 7.628906 -23.328125 2.742188 -34.527344 C 2.183594 -35.808594 1.625 -37.089844 1.179688 -38.324219 C 2.945312 -36.902344 5.007812 -35.230469 7.625 -32.945312 C 15.105469 -26.496094 22.058594 -16.671875 24.777344 -12.621094 C 25.609375 -11.367188 26.691406 -11.074219 27.785156 -11.839844 C 29.441406 -12.847656 31.097656 -13.855469 34.054688 -15.144531 C 36.9375 -16.402344 38.6875 -16.976562 40.585938 -17.425781 C 42.09375 -17.894531 42.546875 -19.042969 41.5625 -20.421875 C 38.808594 -24.554688 32.589844 -34.21875 27.703125 -45.421875 C 21.960938 -59.011719 20.507812 -65.613281 18.847656 -72.699219 C 18.421875 -74.324219 17.390625 -74.730469 16.019531 -73.941406 C 14.320312 -72.816406 12.707031 -71.925781 9.828125 -70.667969 C 7.109375 -69.480469 5.359375 -68.90625 3.734375 -68.484375 C 2.109375 -68.0625 1.738281 -66.945312 2.640625 -65.53125 C 5.429688 -61.320312 11.613281 -51.734375 16.503906 -40.53125 L 17.886719 -37.136719 C 14.917969 -39.363281 11.691406 -41.957031 8.507812 -44.664062 C 3.425781 -49.113281 -2.207031 -56.558594 -4.546875 -62.585938 C -5.210938 -64.105469 -6.164062 -64.546875 -7.5 -63.675781 C -9.554688 -62.496094 -11.613281 -61.3125 -14.652344 -59.984375 C -17.453125 -58.761719 -19.441406 -58.085938 -21.304688 -57.558594 C -22.851562 -57.167969 -23.300781 -56.019531 -22.320312 -54.640625 C -19.527344 -50.429688 -13.347656 -40.839844 -8.457031 -29.640625 C -3.570312 -18.441406 -0.746094 -7.386719 0.441406 -2.480469 C 0.785156 -0.820312 1.933594 -0.367188 3.269531 -1.238281 C 4.765625 -2.175781 6.375 -3.066406 9.09375 -4.253906 C 11.976562 -5.511719 13.726562 -6.085938 15.546875 -6.496094 Z M 15.546875 -6.496094 "/></g></g></g><g fill="#a35428" fill-opacity="1"><g transform="translate(257.262904, 500.819867)"><g><path d="M 10.308594 -7.199219 C 15.296875 -11.757812 20.433594 -15.671875 26.585938 -19.25 C 27.882812 -19.992188 28.117188 -21.140625 27.234375 -22.335938 C 21.765625 -30.015625 17.101562 -38.074219 12.664062 -46.410156 C 6.867188 -57.324219 2.644531 -68.75 0.789062 -73.894531 C 0.152344 -75.488281 -1.050781 -75.792969 -2.296875 -74.542969 C -3.472656 -73.34375 -4.773438 -72.164062 -7.089844 -70.453125 C -9.683594 -68.53125 -11.3125 -67.648438 -13.152344 -66.613281 C -14.5 -65.941406 -14.734375 -64.789062 -13.730469 -63.578125 C -10.75 -59.703125 -3.980469 -50.703125 1.582031 -41.136719 C 5.378906 -34.394531 7.292969 -30.050781 10.398438 -24.097656 C 5.609375 -28.804688 2.011719 -31.902344 -3.328125 -37.503906 C -10.855469 -45.613281 -17.484375 -54.714844 -20.273438 -58.628906 C -21.1875 -60.011719 -22.359375 -60.125 -23.394531 -59.03125 C -24.921875 -57.574219 -26.238281 -56.273438 -28.835938 -54.351562 C -31.152344 -52.636719 -32.65625 -51.738281 -34.144531 -50.960938 C -35.707031 -50.132812 -35.765625 -48.894531 -34.359375 -47.871094 C -29.976562 -44.597656 -20.351562 -37.171875 -11.609375 -28.441406 C -4.929688 -21.765625 1.472656 -14.882812 7.167969 -7.480469 C 8.050781 -6.289062 9.152344 -6.125 10.308594 -7.199219 Z M 10.308594 -7.199219 "/></g></g></g><g fill="#a35428" fill-opacity="1"><g transform="translate(292.353034, 475.092338)"><g><path d="M 3.398438 -1.152344 C 6.925781 -3.117188 11.972656 -5.53125 17.039062 -7.671875 C 21.863281 -9.710938 27.121094 -11.835938 31.863281 -13.175781 C 33.378906 -13.628906 33.796875 -14.65625 33.023438 -16.035156 C 31.195312 -19.242188 29.109375 -23.953125 27.722656 -27.914062 C 27.121094 -29.558594 26.457031 -29.558594 25.464844 -28.097656 C 21.589844 -21.34375 14.847656 -18.6875 11.886719 -17.625 C 11.851562 -17.703125 7.582031 -25.566406 4.699219 -31.265625 C 7.59375 -32.488281 11.585938 -33.132812 14.40625 -33.1875 C 16.125 -33.15625 16.632812 -33.75 15.792969 -35.289062 C 15.101562 -36.703125 14.421875 -38.308594 13.777344 -39.839844 C 13.0625 -41.527344 12.496094 -43.089844 11.933594 -44.648438 C 11.414062 -46.328125 10.667969 -46.296875 9.539062 -45.15625 C 7.683594 -43.042969 4.554688 -40.585938 1.417969 -39.261719 C -0.625 -45.21875 -2.859375 -52.519531 -2.859375 -52.519531 C -0.113281 -53.871094 5.554688 -56.832031 12.6875 -55.203125 C 14.621094 -54.882812 15.335938 -55.660156 14.589844 -57.425781 C 12.410156 -61.910156 11.257812 -64.644531 9.96875 -68.363281 C 9.484375 -69.957031 8.46875 -70.570312 7.121094 -69.71875 C 0.925781 -65.773438 -11.8125 -60.488281 -20.582031 -57.917969 C -22.179688 -57.433594 -22.597656 -56.40625 -21.628906 -55.011719 C -18.890625 -50.769531 -12.785156 -41.03125 -8.03125 -29.773438 C -3.238281 -18.4375 -0.546875 -7.351562 0.585938 -2.425781 C 0.910156 -0.761719 1.9375 -0.34375 3.398438 -1.152344 Z M 3.398438 -1.152344 "/></g></g></g><g fill="#a35428" fill-opacity="1"><g transform="translate(326.502524, 460.592055)"><g><path d="M 3.652344 -0.40625 C 7.523438 -1.5625 12.96875 -2.832031 18.035156 -3.765625 C 23.699219 -4.808594 28.539062 -5.523438 33.011719 -5.8125 C 34.675781 -5.941406 35.234375 -6.753906 34.847656 -8.371094 C 33.730469 -12.511719 32.882812 -17.59375 32.273438 -22.363281 C 32.058594 -24.011719 30.574219 -24.359375 29.304688 -23.058594 C 23.992188 -17.199219 17.582031 -16.816406 15.0625 -16.53125 C 14.078125 -19.457031 12.210938 -24.792969 10.691406 -33.035156 C 8.507812 -44.878906 8.078125 -53.5 8.097656 -61.578125 C 8.070312 -63.171875 7.140625 -63.886719 5.625 -63.429688 C 3.800781 -62.738281 2.03125 -62.238281 -1.0625 -61.667969 C -3.980469 -61.128906 -5.8125 -60.96875 -7.492188 -60.925781 C -9.171875 -60.882812 -9.785156 -59.882812 -9.226562 -58.300781 C -7.46875 -53.566406 -3.625 -42.824219 -1.414062 -30.804688 C 0.847656 -18.527344 1.167969 -9.089844 1.097656 -2.242188 C 1.136719 -0.566406 1.96875 0.0820312 3.652344 -0.40625 Z M 3.652344 -0.40625 "/></g></g></g><g fill="#a35428" fill-opacity="1"><g transform="translate(361.294185, 453.490838)"><g><path d="M 12.535156 1.011719 C 19.28125 0.671875 25.738281 0.925781 32.753906 2.085938 C 34.226562 2.335938 35.140625 1.597656 35.21875 0.117188 C 35.894531 -9.289062 37.429688 -18.472656 39.316406 -27.722656 C 41.792969 -39.832031 45.8125 -51.332031 47.65625 -56.476562 C 48.179688 -58.109375 47.449219 -59.109375 45.691406 -58.941406 C 44.019531 -58.769531 42.269531 -58.6875 39.390625 -58.839844 C 36.167969 -59.007812 34.351562 -59.367188 32.273438 -59.738281 C 30.804688 -60.082031 29.890625 -59.34375 29.894531 -57.769531 C 29.722656 -52.882812 29.214844 -41.632812 27.414062 -30.714844 C 26.046875 -23.09375 24.757812 -18.53125 23.359375 -11.960938 C 22.664062 -18.640625 21.863281 -23.316406 21.3125 -31.039062 C 20.671875 -42.085938 21.355469 -53.324219 21.695312 -58.113281 C 21.871094 -59.765625 21.042969 -60.597656 19.546875 -60.414062 C 17.441406 -60.261719 15.59375 -60.097656 12.371094 -60.269531 C 9.492188 -60.421875 7.757812 -60.6875 6.117188 -61.039062 C 4.386719 -61.390625 3.550781 -60.472656 3.988281 -58.789062 C 5.28125 -53.476562 7.972656 -41.621094 9.15625 -29.320312 C 10.058594 -19.921875 10.609375 -10.539062 10.289062 -1.203125 C 10.210938 0.277344 10.957031 1.105469 12.535156 1.011719 Z M 12.535156 1.011719 "/></g></g></g><g fill="#a35428" fill-opacity="1"><g transform="translate(404.733272, 455.994397)"><g><path d="M 3.355469 1.277344 C 7.324219 2.007812 12.753906 3.355469 18.023438 4.933594 C 23.039062 6.433594 28.449219 8.140625 32.960938 10.125 C 34.414062 10.742188 35.390625 10.214844 35.675781 8.660156 C 36.308594 5.023438 37.699219 0.0625 39.148438 -3.875 C 39.734375 -5.523438 39.222656 -5.949219 37.527344 -5.453125 C 30.238281 -2.710938 23.347656 -4.957031 20.386719 -6.023438 C 20.410156 -6.105469 22.125 -14.886719 23.53125 -21.117188 C 26.542969 -20.214844 30.03125 -18.171875 32.238281 -16.417969 C 33.546875 -15.300781 34.3125 -15.433594 34.648438 -17.15625 C 35.011719 -18.6875 35.511719 -20.359375 35.988281 -21.949219 C 36.511719 -23.703125 37.070312 -25.269531 37.628906 -26.832031 C 38.296875 -28.453125 37.703125 -28.90625 36.105469 -28.746094 C 33.332031 -28.300781 29.351562 -28.394531 26.089844 -29.371094 C 28.308594 -35.265625 31.238281 -42.316406 31.238281 -42.316406 C 34.214844 -41.609375 40.46875 -40.289062 44.929688 -34.488281 C 46.21875 -33.011719 47.265625 -33.152344 47.816406 -34.992188 C 48.988281 -39.835938 49.839844 -42.679688 51.214844 -46.367188 C 51.855469 -47.90625 51.464844 -49.027344 49.882812 -49.226562 C 42.589844 -50.128906 29.402344 -54.164062 21.003906 -57.765625 C 19.464844 -58.410156 18.488281 -57.882812 18.347656 -56.191406 C 17.757812 -51.175781 16.265625 -39.777344 12.765625 -28.070312 C 9.238281 -16.277344 4.257812 -6.015625 1.996094 -1.5 C 1.1875 -0.0078125 1.714844 0.96875 3.355469 1.277344 Z M 3.355469 1.277344 "/></g></g></g><g fill="#a35428" fill-opacity="1"><g transform="translate(439.9496, 466.010882)"><g><path d="M 13.523438 8 C 14.9375 8.515625 16.386719 9.148438 18.730469 10.503906 C 21.152344 11.898438 22.5 12.878906 23.882812 13.976562 C 25.1875 15.03125 26.261719 14.742188 26.863281 13.175781 C 28.742188 8.519531 33.082031 -1.976562 39.234375 -12.636719 C 43.027344 -19.21875 46.882812 -24.851562 50.027344 -29.085938 C 52.65625 -27.871094 55.4375 -25.359375 58.347656 -21.667969 C 59.402344 -20.351562 60.660156 -20.433594 61.410156 -21.914062 C 62.972656 -25.144531 64.488281 -27.597656 66.164062 -30.15625 C 67.101562 -31.429688 66.664062 -32.589844 65.289062 -33.179688 C 62.046875 -34.546875 60.234375 -35.59375 56.679688 -37.644531 L 41.785156 -46.234375 C 38.304688 -48.242188 36.414062 -49.332031 33.609375 -51.453125 C 32.410156 -52.347656 31.1875 -52.144531 30.507812 -50.621094 C 29.164062 -47.769531 28.085938 -46.074219 25.765625 -42.574219 C 24.820312 -41.105469 25.378906 -39.976562 27.042969 -39.722656 C 31.890625 -39.042969 35.492188 -37.773438 37.855469 -36.105469 C 35.769531 -31.265625 32.820312 -25.105469 28.800781 -18.65625 C 22.347656 -8.171875 15.585938 0.929688 12.648438 4.976562 C 11.589844 6.28125 11.957031 7.398438 13.523438 8 Z M 13.523438 8 "/></g></g></g><g fill="#a35428" fill-opacity="1"><g transform="translate(476.969557, 488.733343)"><g/></g></g><g fill="#a35428" fill-opacity="1"><g transform="translate(508.790445, 497.018519)"><g><path d="M 28.898438 12.351562 C 30.195312 12.875 31.183594 12.523438 31.917969 11.40625 C 37.136719 3.160156 41.539062 -3.0625 45.289062 -8.605469 C 49.105469 -14.3125 52.378906 -18.449219 53.683594 -20.273438 L 53.4375 -19.433594 C 52.679688 -17.101562 51.925781 -14.769531 50.945312 -12.34375 C 46.359375 -1.015625 40.519531 8.765625 37.761719 13.019531 C 36.753906 14.585938 37.300781 15.5625 38.933594 15.941406 C 40.570312 16.320312 42.417969 16.878906 45.085938 17.960938 C 48.566406 19.367188 48.984375 19.726562 51.203125 21 C 52.558594 21.832031 53.777344 21.382812 54.140625 19.550781 C 55.132812 14.773438 57.738281 3.679688 62.351562 -7.726562 C 66.96875 -19.136719 72.8125 -28.921875 75.421875 -33.042969 C 76.433594 -34.609375 75.871094 -35.78125 74.316406 -36.125 C 71.835938 -36.753906 71.285156 -36.789062 67.808594 -38.195312 C 64.328125 -39.601562 61.675781 -40.957031 59.425781 -42.152344 C 58.359375 -42.769531 57.238281 -42.566406 56.554688 -41.335938 C 52.898438 -34.625 44.832031 -23.761719 36.207031 -11.058594 C 39.171875 -26.996094 40.84375 -39.972656 42.71875 -46.933594 C 43.078125 -48.292969 42.613281 -49.234375 41.253906 -49.597656 C 38.453125 -50.355469 35.199219 -51.386719 32.042969 -52.664062 C 29.292969 -53.777344 27.65625 -54.628906 26.136719 -55.523438 C 24.78125 -56.355469 23.722656 -55.84375 23.34375 -54.207031 C 22.289062 -49.265625 19.683594 -38.175781 15.097656 -26.847656 C 10.484375 -15.4375 4.675781 -5.734375 2.03125 -1.53125 C 1.019531 0.0351562 1.535156 1.09375 3.089844 1.4375 C 4.808594 1.851562 6.570312 2.375 9.324219 3.488281 C 12.640625 4.832031 13.546875 5.386719 15.4375 6.527344 C 16.957031 7.425781 17.996094 6.71875 18.34375 5.164062 C 19.289062 0.269531 21.925781 -10.902344 26.507812 -22.230469 C 27.523438 -24.738281 28.632812 -27.019531 29.828125 -29.269531 L 29.925781 -29.511719 C 29.714844 -25.734375 29.242188 -21.3125 28.214844 -15.511719 C 27.320312 -10.039062 25.429688 0.214844 23.699219 7.988281 C 23.417969 9.378906 23.800781 10.289062 25.179688 10.847656 Z M 28.898438 12.351562 "/></g></g></g><g fill="#a35428" fill-opacity="1"><g transform="translate(581.474868, 522.512908)"><g><path d="M 22.109375 3.503906 C 35.398438 4.816406 44.132812 -4.582031 46.273438 -26.210938 C 48.234375 -46.011719 41.671875 -58.589844 28.382812 -59.90625 C 15.089844 -61.222656 6.105469 -50.179688 4.144531 -30.378906 C 2.003906 -8.75 8.816406 2.1875 22.109375 3.503906 Z M 23.222656 -8.667969 C 18.96875 -9.085938 17.03125 -17.875 18.097656 -28.644531 C 19.28125 -40.632812 22.835938 -48.175781 27.089844 -47.753906 C 31.347656 -47.332031 33.355469 -39.242188 32.167969 -27.253906 C 31.101562 -16.484375 27.480469 -8.246094 23.222656 -8.667969 Z M 23.222656 -8.667969 "/></g></g></g><g fill="#a35428" fill-opacity="1"><g transform="translate(642.843543, 526.445952)"><g><path d="M 22.285156 -2.101562 C 35.484375 -4.132812 41.609375 -15.40625 38.304688 -36.890625 C 35.28125 -56.558594 25.796875 -67.109375 12.597656 -65.082031 C -0.601562 -63.050781 -6.5625 -50.125 -3.535156 -30.453125 C -0.230469 -8.972656 9.085938 -0.0742188 22.285156 -2.101562 Z M 20.339844 -14.167969 C 16.113281 -13.515625 12.050781 -21.546875 10.40625 -32.246094 C 8.578125 -44.152344 10.144531 -52.339844 14.371094 -52.988281 C 18.597656 -53.640625 22.550781 -46.300781 24.382812 -34.394531 C 26.027344 -23.695312 24.566406 -14.816406 20.339844 -14.167969 Z M 20.339844 -14.167969 "/></g></g></g><g fill="#a35428" fill-opacity="1"><g transform="translate(703.608219, 515.044574)"><g><path d="M 15.546875 -6.496094 C 17.136719 -7 17.585938 -8.148438 16.601562 -9.53125 C 13.847656 -13.660156 7.628906 -23.328125 2.742188 -34.527344 C 2.183594 -35.808594 1.625 -37.089844 1.179688 -38.324219 C 2.945312 -36.902344 5.007812 -35.230469 7.625 -32.945312 C 15.105469 -26.496094 22.058594 -16.671875 24.777344 -12.621094 C 25.609375 -11.367188 26.691406 -11.074219 27.785156 -11.839844 C 29.441406 -12.847656 31.097656 -13.855469 34.054688 -15.144531 C 36.9375 -16.402344 38.6875 -16.976562 40.585938 -17.425781 C 42.09375 -17.894531 42.546875 -19.042969 41.5625 -20.421875 C 38.808594 -24.554688 32.589844 -34.21875 27.703125 -45.421875 C 21.960938 -59.011719 20.507812 -65.613281 18.847656 -72.699219 C 18.421875 -74.324219 17.390625 -74.730469 16.019531 -73.941406 C 14.320312 -72.816406 12.707031 -71.925781 9.828125 -70.667969 C 7.109375 -69.480469 5.359375 -68.90625 3.734375 -68.484375 C 2.109375 -68.0625 1.738281 -66.945312 2.640625 -65.53125 C 5.429688 -61.320312 11.613281 -51.734375 16.503906 -40.53125 L 17.886719 -37.136719 C 14.917969 -39.363281 11.691406 -41.957031 8.507812 -44.664062 C 3.425781 -49.113281 -2.207031 -56.558594 -4.546875 -62.585938 C -5.210938 -64.105469 -6.164062 -64.546875 -7.5 -63.675781 C -9.554688 -62.496094 -11.613281 -61.3125 -14.652344 -59.984375 C -17.453125 -58.761719 -19.441406 -58.085938 -21.304688 -57.558594 C -22.851562 -57.167969 -23.300781 -56.019531 -22.320312 -54.640625 C -19.527344 -50.429688 -13.347656 -40.839844 -8.457031 -29.640625 C -3.570312 -18.441406 -0.746094 -7.386719 0.441406 -2.480469 C 0.785156 -0.820312 1.933594 -0.367188 3.269531 -1.238281 C 4.765625 -2.175781 6.375 -3.066406 9.09375 -4.253906 C 11.976562 -5.511719 13.726562 -6.085938 15.546875 -6.496094 Z M 15.546875 -6.496094 "/></g></g></g><g fill="#eb794f" fill-opacity="1"><g transform="translate(754.091029, 312.26322)"><g><path d="M 19.628906 -10.757812 C 24.140625 -13.585938 25.535156 -15.800781 28.808594 -17.648438 C 30.257812 -18.453125 30.554688 -19.460938 29.570312 -20.699219 C 26.863281 -24.359375 23.695312 -28.761719 21.308594 -32.726562 C 20.363281 -34.402344 19.605469 -34.132812 19.40625 -32.152344 C 18.933594 -26.496094 17.5 -23.847656 14.914062 -22.226562 C 10.402344 -19.398438 2.605469 -24.605469 -3.144531 -33.777344 C -9.542969 -43.984375 -10.460938 -52.679688 -5.949219 -55.507812 C -3.363281 -57.128906 -0.0976562 -57.015625 4.414062 -55.410156 C 6.402344 -54.699219 7.152344 -55.476562 6.011719 -57.132812 C 3.527344 -60.933594 0.964844 -65.507812 -0.9375 -69.363281 C -1.621094 -70.789062 -2.660156 -70.964844 -3.945312 -70.054688 C -7.105469 -67.867188 -9.703125 -67.578125 -14.214844 -64.75 C -25.457031 -57.699219 -25.808594 -43.46875 -15.238281 -26.609375 C -3.695312 -8.191406 8.386719 -3.710938 19.628906 -10.757812 Z M 19.628906 -10.757812 "/></g></g></g><g fill="#eb794f" fill-opacity="1"><g transform="translate(784.098551, 292.727411)"><g><path d="M 21.585938 -5.921875 C 34.238281 -10.199219 38.324219 -22.363281 31.359375 -42.953125 C 24.980469 -61.804688 13.820312 -70.558594 1.167969 -66.28125 C -11.484375 -62 -15.121094 -48.238281 -8.742188 -29.386719 C -1.777344 -8.796875 8.9375 -1.640625 21.585938 -5.921875 Z M 17.589844 -17.46875 C 13.535156 -16.097656 8.148438 -23.304688 4.679688 -33.558594 C 0.820312 -44.96875 0.949219 -53.304688 5 -54.675781 C 9.054688 -56.046875 14.214844 -49.5 18.078125 -38.089844 C 21.542969 -27.835938 21.640625 -18.839844 17.589844 -17.46875 Z M 17.589844 -17.46875 "/></g></g></g><g fill="#eb794f" fill-opacity="1"><g transform="translate(824.809754, 279.212457)"><g><path d="M 17.40625 -1.371094 C 18.988281 -1.34375 19.773438 -2.292969 19.269531 -3.910156 C 18.191406 -7.929688 16.105469 -16.152344 14.761719 -25.84375 C 17.714844 -26.121094 21.722656 -25.445312 24.429688 -24.648438 C 26.058594 -24.097656 26.71875 -24.511719 26.382812 -26.234375 C 26.140625 -27.875 25.988281 -29.527344 25.824219 -31.265625 C 25.660156 -33.003906 25.59375 -34.664062 25.515625 -36.410156 C 25.535156 -38.078125 24.816406 -38.273438 23.394531 -37.523438 C 20.980469 -36.160156 17.167969 -34.75 13.867188 -34.441406 C 13.445312 -40.800781 13.542969 -50.980469 13.542969 -50.980469 C 17.167969 -51.582031 22.933594 -52.738281 28.882812 -50.050781 C 30.632812 -49.164062 31.539062 -49.773438 31.28125 -51.589844 C 30.726562 -55.660156 30.390625 -59.222656 30.367188 -62.289062 C 30.300781 -63.949219 29.539062 -64.578125 27.902344 -64.25 C 25.503906 -63.671875 20.84375 -62.886719 12.933594 -62.144531 C 7.632812 -61.648438 2.394531 -61.417969 -1.730469 -61.46875 C -3.398438 -61.488281 -4.109375 -60.632812 -3.605469 -59.015625 C -2.273438 -54.144531 0.613281 -43.015625 1.753906 -30.847656 C 2.894531 -18.683594 2.121094 -7.300781 1.714844 -2.265625 C 1.523438 -0.582031 2.472656 0.207031 4.101562 -0.210938 C 5.726562 -0.625 7.535156 -0.96875 10.492188 -1.246094 C 13.621094 -1.539062 15.460938 -1.539062 17.40625 -1.371094 Z M 17.40625 -1.371094 "/></g></g></g><g fill="#eb794f" fill-opacity="1"><g transform="translate(860.647424, 275.743339)"><g><path d="M 17.300781 2.363281 C 18.835938 2.722656 19.808594 1.964844 19.664062 0.273438 C 19.464844 -3.882812 19.171875 -12.359375 19.917969 -22.117188 C 22.863281 -21.757812 26.636719 -20.246094 29.109375 -18.890625 C 30.585938 -18.007812 31.320312 -18.269531 31.355469 -20.023438 C 31.46875 -21.683594 31.667969 -23.328125 31.878906 -25.0625 C 32.089844 -26.792969 32.375 -28.429688 32.671875 -30.152344 C 33.046875 -31.777344 32.386719 -32.121094 30.839844 -31.695312 C 28.1875 -30.871094 24.164062 -30.304688 20.871094 -30.707031 C 21.8125 -37.011719 24.070312 -46.933594 24.070312 -46.933594 C 27.742188 -46.753906 33.621094 -46.65625 38.863281 -42.765625 C 40.382812 -41.527344 41.398438 -41.933594 41.535156 -43.761719 C 41.855469 -47.855469 42.285156 -51.410156 42.914062 -54.410156 C 43.199219 -56.046875 42.589844 -56.824219 40.921875 -56.847656 C 38.457031 -56.796875 33.734375 -57.019531 25.847656 -57.972656 C 20.5625 -58.617188 15.394531 -59.507812 11.375 -60.433594 C 9.75 -60.804688 8.875 -60.121094 9.023438 -58.433594 C 9.289062 -53.386719 9.742188 -41.902344 8.269531 -29.769531 C 6.800781 -17.640625 3.625 -6.683594 2.160156 -1.847656 C 1.613281 -0.242188 2.375 0.726562 4.050781 0.667969 C 5.730469 0.605469 7.570312 0.65625 10.515625 1.011719 C 13.636719 1.390625 15.433594 1.785156 17.300781 2.363281 Z M 17.300781 2.363281 "/></g></g></g><g fill="#eb794f" fill-opacity="1"><g transform="translate(896.315513, 279.880827)"><g><path d="M 3.289062 1.433594 C 7.222656 2.351562 12.578125 3.957031 17.769531 5.78125 C 22.710938 7.515625 28.035156 9.480469 32.441406 11.675781 C 33.867188 12.363281 34.867188 11.882812 35.222656 10.339844 C 36.027344 6.738281 37.652344 1.851562 39.289062 -2.015625 C 39.949219 -3.632812 39.460938 -4.082031 37.742188 -3.671875 C 30.332031 -1.277344 23.554688 -3.84375 20.648438 -5.050781 C 20.675781 -5.132812 22.804688 -13.820312 24.503906 -19.976562 C 27.46875 -18.9375 30.859375 -16.726562 32.980469 -14.871094 C 34.230469 -13.691406 35.007812 -13.789062 35.421875 -15.496094 C 35.859375 -17.007812 36.4375 -18.652344 36.988281 -20.21875 C 37.59375 -21.949219 38.226562 -23.484375 38.859375 -25.019531 C 39.601562 -26.609375 39.03125 -27.085938 37.429688 -27.003906 C 34.636719 -26.6875 30.664062 -26.972656 27.453125 -28.101562 C 29.949219 -33.886719 33.207031 -40.792969 33.207031 -40.792969 C 36.144531 -39.941406 42.332031 -38.324219 46.515625 -32.320312 C 47.730469 -30.785156 48.78125 -30.878906 49.417969 -32.6875 C 50.820312 -37.46875 51.804688 -40.269531 53.355469 -43.890625 C 54.066406 -45.394531 53.726562 -46.535156 52.160156 -46.808594 C 44.917969 -48.054688 31.933594 -52.710938 23.71875 -56.707031 C 22.210938 -57.421875 21.210938 -56.941406 20.988281 -55.261719 C 20.164062 -50.277344 18.132812 -38.964844 14.082031 -27.433594 C 10 -15.824219 4.539062 -5.808594 2.066406 -1.402344 C 1.1875 0.046875 1.667969 1.046875 3.289062 1.433594 Z M 3.289062 1.433594 "/></g></g></g><g fill="#eb794f" fill-opacity="1"><g transform="translate(931.283384, 292.024377)"><g><path d="M 2.898438 2.117188 C 6.535156 3.875 11.410156 6.609375 16.078125 9.519531 C 20.519531 12.292969 25.285156 15.371094 29.109375 18.480469 C 30.351562 19.460938 31.433594 19.210938 32.117188 17.785156 C 33.6875 14.441406 36.339844 10.027344 38.78125 6.613281 C 39.78125 5.179688 39.398438 4.632812 37.632812 4.660156 C 29.878906 5.378906 23.824219 1.394531 21.253906 -0.417969 C 21.300781 -0.492188 25.273438 -8.507812 28.277344 -14.144531 C 30.941406 -12.480469 33.765625 -9.585938 35.433594 -7.3125 C 36.394531 -5.886719 37.171875 -5.8125 37.949219 -7.386719 C 38.707031 -8.765625 39.632812 -10.246094 40.511719 -11.652344 C 41.480469 -13.207031 42.433594 -14.570312 43.386719 -15.929688 C 44.457031 -17.316406 44.003906 -17.910156 42.421875 -18.175781 C 39.628906 -18.480469 35.816406 -19.625 32.925781 -21.429688 C 36.625 -26.527344 41.3125 -32.554688 41.3125 -32.554688 C 43.996094 -31.085938 49.679688 -28.15625 52.449219 -21.382812 C 53.300781 -19.617188 54.347656 -19.480469 55.363281 -21.109375 C 57.777344 -25.46875 59.347656 -27.984375 61.652344 -31.179688 C 62.675781 -32.492188 62.59375 -33.675781 61.121094 -34.285156 C 54.328125 -37.085938 42.675781 -44.464844 35.53125 -50.160156 C 34.214844 -51.183594 33.132812 -50.933594 32.550781 -49.34375 C 30.65625 -44.660156 26.203125 -34.0625 19.730469 -23.699219 C 13.214844 -13.257812 5.695312 -4.675781 2.320312 -0.917969 C 1.148438 0.304688 1.398438 1.386719 2.898438 2.117188 Z M 2.898438 2.117188 "/></g></g></g><g fill="#8c3839" fill-opacity="1"><g transform="translate(768.802152, 404.838404)"><g><path d="M 19.628906 -10.757812 C 24.140625 -13.585938 25.535156 -15.800781 28.808594 -17.648438 C 30.257812 -18.453125 30.554688 -19.460938 29.570312 -20.699219 C 26.863281 -24.359375 23.695312 -28.761719 21.308594 -32.726562 C 20.363281 -34.402344 19.605469 -34.132812 19.40625 -32.152344 C 18.933594 -26.496094 17.5 -23.847656 14.914062 -22.226562 C 10.402344 -19.398438 2.605469 -24.605469 -3.144531 -33.777344 C -9.542969 -43.984375 -10.460938 -52.679688 -5.949219 -55.507812 C -3.363281 -57.128906 -0.0976562 -57.015625 4.414062 -55.410156 C 6.402344 -54.699219 7.152344 -55.476562 6.011719 -57.132812 C 3.527344 -60.933594 0.964844 -65.507812 -0.9375 -69.363281 C -1.621094 -70.789062 -2.660156 -70.964844 -3.945312 -70.054688 C -7.105469 -67.867188 -9.703125 -67.578125 -14.214844 -64.75 C -25.457031 -57.699219 -25.808594 -43.46875 -15.238281 -26.609375 C -3.695312 -8.191406 8.386719 -3.710938 19.628906 -10.757812 Z M 19.628906 -10.757812 "/></g></g></g><g fill="#8c3839" fill-opacity="1"><g transform="translate(798.809674, 385.302581)"><g><path d="M 21.585938 -5.921875 C 34.238281 -10.199219 38.324219 -22.363281 31.359375 -42.953125 C 24.980469 -61.804688 13.820312 -70.558594 1.167969 -66.28125 C -11.484375 -62 -15.121094 -48.238281 -8.742188 -29.386719 C -1.777344 -8.796875 8.9375 -1.640625 21.585938 -5.921875 Z M 17.589844 -17.46875 C 13.535156 -16.097656 8.148438 -23.304688 4.679688 -33.558594 C 0.820312 -44.96875 0.949219 -53.304688 5 -54.675781 C 9.054688 -56.046875 14.214844 -49.5 18.078125 -38.089844 C 21.542969 -27.835938 21.640625 -18.839844 17.589844 -17.46875 Z M 17.589844 -17.46875 "/></g></g></g><g fill="#8c3839" fill-opacity="1"><g transform="translate(839.520805, 371.787656)"><g><path d="M 17.40625 -1.371094 C 18.988281 -1.34375 19.773438 -2.292969 19.269531 -3.910156 C 18.191406 -7.929688 16.105469 -16.152344 14.761719 -25.84375 C 17.714844 -26.121094 21.722656 -25.445312 24.429688 -24.648438 C 26.058594 -24.097656 26.71875 -24.511719 26.382812 -26.234375 C 26.140625 -27.875 25.988281 -29.527344 25.824219 -31.265625 C 25.660156 -33.003906 25.59375 -34.664062 25.515625 -36.410156 C 25.535156 -38.078125 24.816406 -38.273438 23.394531 -37.523438 C 20.980469 -36.160156 17.167969 -34.75 13.867188 -34.441406 C 13.445312 -40.800781 13.542969 -50.980469 13.542969 -50.980469 C 17.167969 -51.582031 22.933594 -52.738281 28.882812 -50.050781 C 30.632812 -49.164062 31.539062 -49.773438 31.28125 -51.589844 C 30.726562 -55.660156 30.390625 -59.222656 30.367188 -62.289062 C 30.300781 -63.949219 29.539062 -64.578125 27.902344 -64.25 C 25.503906 -63.671875 20.84375 -62.886719 12.933594 -62.144531 C 7.632812 -61.648438 2.394531 -61.417969 -1.730469 -61.46875 C -3.398438 -61.488281 -4.109375 -60.632812 -3.605469 -59.015625 C -2.273438 -54.144531 0.613281 -43.015625 1.753906 -30.847656 C 2.894531 -18.683594 2.121094 -7.300781 1.714844 -2.265625 C 1.523438 -0.582031 2.472656 0.207031 4.101562 -0.210938 C 5.726562 -0.625 7.535156 -0.96875 10.492188 -1.246094 C 13.621094 -1.539062 15.460938 -1.539062 17.40625 -1.371094 Z M 17.40625 -1.371094 "/></g></g></g><g fill="#8c3839" fill-opacity="1"><g transform="translate(875.358595, 368.318509)"><g><path d="M 17.300781 2.363281 C 18.835938 2.722656 19.808594 1.964844 19.664062 0.273438 C 19.464844 -3.882812 19.171875 -12.359375 19.917969 -22.117188 C 22.863281 -21.757812 26.636719 -20.246094 29.109375 -18.890625 C 30.585938 -18.007812 31.320312 -18.269531 31.355469 -20.023438 C 31.46875 -21.683594 31.667969 -23.328125 31.878906 -25.0625 C 32.089844 -26.792969 32.375 -28.429688 32.671875 -30.152344 C 33.046875 -31.777344 32.386719 -32.121094 30.839844 -31.695312 C 28.1875 -30.871094 24.164062 -30.304688 20.871094 -30.707031 C 21.8125 -37.011719 24.070312 -46.933594 24.070312 -46.933594 C 27.742188 -46.753906 33.621094 -46.65625 38.863281 -42.765625 C 40.382812 -41.527344 41.398438 -41.933594 41.535156 -43.761719 C 41.855469 -47.855469 42.285156 -51.410156 42.914062 -54.410156 C 43.199219 -56.046875 42.589844 -56.824219 40.921875 -56.847656 C 38.457031 -56.796875 33.734375 -57.019531 25.847656 -57.972656 C 20.5625 -58.617188 15.394531 -59.507812 11.375 -60.433594 C 9.75 -60.804688 8.875 -60.121094 9.023438 -58.433594 C 9.289062 -53.386719 9.742188 -41.902344 8.269531 -29.769531 C 6.800781 -17.640625 3.625 -6.683594 2.160156 -1.847656 C 1.613281 -0.242188 2.375 0.726562 4.050781 0.667969 C 5.730469 0.605469 7.570312 0.65625 10.515625 1.011719 C 13.636719 1.390625 15.433594 1.785156 17.300781 2.363281 Z M 17.300781 2.363281 "/></g></g></g><g fill="#8c3839" fill-opacity="1"><g transform="translate(911.026684, 372.456011)"><g><path d="M 3.289062 1.433594 C 7.222656 2.351562 12.578125 3.957031 17.769531 5.78125 C 22.710938 7.515625 28.035156 9.480469 32.441406 11.675781 C 33.867188 12.363281 34.867188 11.882812 35.222656 10.339844 C 36.027344 6.738281 37.652344 1.851562 39.289062 -2.015625 C 39.949219 -3.632812 39.460938 -4.082031 37.742188 -3.671875 C 30.332031 -1.277344 23.554688 -3.84375 20.648438 -5.050781 C 20.675781 -5.132812 22.804688 -13.820312 24.503906 -19.976562 C 27.46875 -18.9375 30.859375 -16.726562 32.980469 -14.871094 C 34.230469 -13.691406 35.007812 -13.789062 35.421875 -15.496094 C 35.859375 -17.007812 36.4375 -18.652344 36.988281 -20.21875 C 37.59375 -21.949219 38.226562 -23.484375 38.859375 -25.019531 C 39.601562 -26.609375 39.03125 -27.085938 37.429688 -27.003906 C 34.636719 -26.6875 30.664062 -26.972656 27.453125 -28.101562 C 29.949219 -33.886719 33.207031 -40.792969 33.207031 -40.792969 C 36.144531 -39.941406 42.332031 -38.324219 46.515625 -32.320312 C 47.730469 -30.785156 48.78125 -30.878906 49.417969 -32.6875 C 50.820312 -37.46875 51.804688 -40.269531 53.355469 -43.890625 C 54.066406 -45.394531 53.726562 -46.535156 52.160156 -46.808594 C 44.917969 -48.054688 31.933594 -52.710938 23.71875 -56.707031 C 22.210938 -57.421875 21.210938 -56.941406 20.988281 -55.261719 C 20.164062 -50.277344 18.132812 -38.964844 14.082031 -27.433594 C 10 -15.824219 4.539062 -5.808594 2.066406 -1.402344 C 1.1875 0.046875 1.667969 1.046875 3.289062 1.433594 Z M 3.289062 1.433594 "/></g></g></g><g fill="#8c3839" fill-opacity="1"><g transform="translate(945.994507, 384.599547)"><g><path d="M 2.898438 2.117188 C 6.535156 3.875 11.410156 6.609375 16.078125 9.519531 C 20.519531 12.292969 25.285156 15.371094 29.109375 18.480469 C 30.351562 19.460938 31.433594 19.210938 32.117188 17.785156 C 33.6875 14.441406 36.339844 10.027344 38.78125 6.613281 C 39.78125 5.179688 39.398438 4.632812 37.632812 4.660156 C 29.878906 5.378906 23.824219 1.394531 21.253906 -0.417969 C 21.300781 -0.492188 25.273438 -8.507812 28.277344 -14.144531 C 30.941406 -12.480469 33.765625 -9.585938 35.433594 -7.3125 C 36.394531 -5.886719 37.171875 -5.8125 37.949219 -7.386719 C 38.707031 -8.765625 39.632812 -10.246094 40.511719 -11.652344 C 41.480469 -13.207031 42.433594 -14.570312 43.386719 -15.929688 C 44.457031 -17.316406 44.003906 -17.910156 42.421875 -18.175781 C 39.628906 -18.480469 35.816406 -19.625 32.925781 -21.429688 C 36.625 -26.527344 41.3125 -32.554688 41.3125 -32.554688 C 43.996094 -31.085938 49.679688 -28.15625 52.449219 -21.382812 C 53.300781 -19.617188 54.347656 -19.480469 55.363281 -21.109375 C 57.777344 -25.46875 59.347656 -27.984375 61.652344 -31.179688 C 62.675781 -32.492188 62.59375 -33.675781 61.121094 -34.285156 C 54.328125 -37.085938 42.675781 -44.464844 35.53125 -50.160156 C 34.214844 -51.183594 33.132812 -50.933594 32.550781 -49.34375 C 30.65625 -44.660156 26.203125 -34.0625 19.730469 -23.699219 C 13.214844 -13.257812 5.695312 -4.675781 2.320312 -0.917969 C 1.148438 0.304688 1.398438 1.386719 2.898438 2.117188 Z M 2.898438 2.117188 "/></g></g></g><g fill="#a35428" fill-opacity="1"><g transform="translate(774.760027, 495.187887)"><g><path d="M 19.628906 -10.757812 C 24.140625 -13.585938 25.535156 -15.800781 28.808594 -17.648438 C 30.257812 -18.453125 30.554688 -19.460938 29.570312 -20.699219 C 26.863281 -24.359375 23.695312 -28.761719 21.308594 -32.726562 C 20.363281 -34.402344 19.605469 -34.132812 19.40625 -32.152344 C 18.933594 -26.496094 17.5 -23.847656 14.914062 -22.226562 C 10.402344 -19.398438 2.605469 -24.605469 -3.144531 -33.777344 C -9.542969 -43.984375 -10.460938 -52.679688 -5.949219 -55.507812 C -3.363281 -57.128906 -0.0976562 -57.015625 4.414062 -55.410156 C 6.402344 -54.699219 7.152344 -55.476562 6.011719 -57.132812 C 3.527344 -60.933594 0.964844 -65.507812 -0.9375 -69.363281 C -1.621094 -70.789062 -2.660156 -70.964844 -3.945312 -70.054688 C -7.105469 -67.867188 -9.703125 -67.578125 -14.214844 -64.75 C -25.457031 -57.699219 -25.808594 -43.46875 -15.238281 -26.609375 C -3.695312 -8.191406 8.386719 -3.710938 19.628906 -10.757812 Z M 19.628906 -10.757812 "/></g></g></g><g fill="#a35428" fill-opacity="1"><g transform="translate(804.767549, 475.652057)"><g><path d="M 21.585938 -5.921875 C 34.238281 -10.199219 38.324219 -22.363281 31.359375 -42.953125 C 24.980469 -61.804688 13.820312 -70.558594 1.167969 -66.28125 C -11.484375 -62 -15.121094 -48.238281 -8.742188 -29.386719 C -1.777344 -8.796875 8.9375 -1.640625 21.585938 -5.921875 Z M 17.589844 -17.46875 C 13.535156 -16.097656 8.148438 -23.304688 4.679688 -33.558594 C 0.820312 -44.96875 0.949219 -53.304688 5 -54.675781 C 9.054688 -56.046875 14.214844 -49.5 18.078125 -38.089844 C 21.542969 -27.835938 21.640625 -18.839844 17.589844 -17.46875 Z M 17.589844 -17.46875 "/></g></g></g><g fill="#a35428" fill-opacity="1"><g transform="translate(845.478752, 462.137132)"><g><path d="M 17.40625 -1.371094 C 18.988281 -1.34375 19.773438 -2.292969 19.269531 -3.910156 C 18.191406 -7.929688 16.105469 -16.152344 14.761719 -25.84375 C 17.714844 -26.121094 21.722656 -25.445312 24.429688 -24.648438 C 26.058594 -24.097656 26.71875 -24.511719 26.382812 -26.234375 C 26.140625 -27.875 25.988281 -29.527344 25.824219 -31.265625 C 25.660156 -33.003906 25.59375 -34.664062 25.515625 -36.410156 C 25.535156 -38.078125 24.816406 -38.273438 23.394531 -37.523438 C 20.980469 -36.160156 17.167969 -34.75 13.867188 -34.441406 C 13.445312 -40.800781 13.542969 -50.980469 13.542969 -50.980469 C 17.167969 -51.582031 22.933594 -52.738281 28.882812 -50.050781 C 30.632812 -49.164062 31.539062 -49.773438 31.28125 -51.589844 C 30.726562 -55.660156 30.390625 -59.222656 30.367188 -62.289062 C 30.300781 -63.949219 29.539062 -64.578125 27.902344 -64.25 C 25.503906 -63.671875 20.84375 -62.886719 12.933594 -62.144531 C 7.632812 -61.648438 2.394531 -61.417969 -1.730469 -61.46875 C -3.398438 -61.488281 -4.109375 -60.632812 -3.605469 -59.015625 C -2.273438 -54.144531 0.613281 -43.015625 1.753906 -30.847656 C 2.894531 -18.683594 2.121094 -7.300781 1.714844 -2.265625 C 1.523438 -0.582031 2.472656 0.207031 4.101562 -0.210938 C 5.726562 -0.625 7.535156 -0.96875 10.492188 -1.246094 C 13.621094 -1.539062 15.460938 -1.539062 17.40625 -1.371094 Z M 17.40625 -1.371094 "/></g></g></g><g fill="#a35428" fill-opacity="1"><g transform="translate(881.316494, 458.668013)"><g><path d="M 17.300781 2.363281 C 18.835938 2.722656 19.808594 1.964844 19.664062 0.273438 C 19.464844 -3.882812 19.171875 -12.359375 19.917969 -22.117188 C 22.863281 -21.757812 26.636719 -20.246094 29.109375 -18.890625 C 30.585938 -18.007812 31.320312 -18.269531 31.355469 -20.023438 C 31.46875 -21.683594 31.667969 -23.328125 31.878906 -25.0625 C 32.089844 -26.792969 32.375 -28.429688 32.671875 -30.152344 C 33.046875 -31.777344 32.386719 -32.121094 30.839844 -31.695312 C 28.1875 -30.871094 24.164062 -30.304688 20.871094 -30.707031 C 21.8125 -37.011719 24.070312 -46.933594 24.070312 -46.933594 C 27.742188 -46.753906 33.621094 -46.65625 38.863281 -42.765625 C 40.382812 -41.527344 41.398438 -41.933594 41.535156 -43.761719 C 41.855469 -47.855469 42.285156 -51.410156 42.914062 -54.410156 C 43.199219 -56.046875 42.589844 -56.824219 40.921875 -56.847656 C 38.457031 -56.796875 33.734375 -57.019531 25.847656 -57.972656 C 20.5625 -58.617188 15.394531 -59.507812 11.375 -60.433594 C 9.75 -60.804688 8.875 -60.121094 9.023438 -58.433594 C 9.289062 -53.386719 9.742188 -41.902344 8.269531 -29.769531 C 6.800781 -17.640625 3.625 -6.683594 2.160156 -1.847656 C 1.613281 -0.242188 2.375 0.726562 4.050781 0.667969 C 5.730469 0.605469 7.570312 0.65625 10.515625 1.011719 C 13.636719 1.390625 15.433594 1.785156 17.300781 2.363281 Z M 17.300781 2.363281 "/></g></g></g><g fill="#a35428" fill-opacity="1"><g transform="translate(916.984583, 462.805516)"><g><path d="M 3.289062 1.433594 C 7.222656 2.351562 12.578125 3.957031 17.769531 5.78125 C 22.710938 7.515625 28.035156 9.480469 32.441406 11.675781 C 33.867188 12.363281 34.867188 11.882812 35.222656 10.339844 C 36.027344 6.738281 37.652344 1.851562 39.289062 -2.015625 C 39.949219 -3.632812 39.460938 -4.082031 37.742188 -3.671875 C 30.332031 -1.277344 23.554688 -3.84375 20.648438 -5.050781 C 20.675781 -5.132812 22.804688 -13.820312 24.503906 -19.976562 C 27.46875 -18.9375 30.859375 -16.726562 32.980469 -14.871094 C 34.230469 -13.691406 35.007812 -13.789062 35.421875 -15.496094 C 35.859375 -17.007812 36.4375 -18.652344 36.988281 -20.21875 C 37.59375 -21.949219 38.226562 -23.484375 38.859375 -25.019531 C 39.601562 -26.609375 39.03125 -27.085938 37.429688 -27.003906 C 34.636719 -26.6875 30.664062 -26.972656 27.453125 -28.101562 C 29.949219 -33.886719 33.207031 -40.792969 33.207031 -40.792969 C 36.144531 -39.941406 42.332031 -38.324219 46.515625 -32.320312 C 47.730469 -30.785156 48.78125 -30.878906 49.417969 -32.6875 C 50.820312 -37.46875 51.804688 -40.269531 53.355469 -43.890625 C 54.066406 -45.394531 53.726562 -46.535156 52.160156 -46.808594 C 44.917969 -48.054688 31.933594 -52.710938 23.71875 -56.707031 C 22.210938 -57.421875 21.210938 -56.941406 20.988281 -55.261719 C 20.164062 -50.277344 18.132812 -38.964844 14.082031 -27.433594 C 10 -15.824219 4.539062 -5.808594 2.066406 -1.402344 C 1.1875 0.046875 1.667969 1.046875 3.289062 1.433594 Z M 3.289062 1.433594 "/></g></g></g><g fill="#a35428" fill-opacity="1"><g transform="translate(951.952382, 474.949051)"><g><path d="M 2.898438 2.117188 C 6.535156 3.875 11.410156 6.609375 16.078125 9.519531 C 20.519531 12.292969 25.285156 15.371094 29.109375 18.480469 C 30.351562 19.460938 31.433594 19.210938 32.117188 17.785156 C 33.6875 14.441406 36.339844 10.027344 38.78125 6.613281 C 39.78125 5.179688 39.398438 4.632812 37.632812 4.660156 C 29.878906 5.378906 23.824219 1.394531 21.253906 -0.417969 C 21.300781 -0.492188 25.273438 -8.507812 28.277344 -14.144531 C 30.941406 -12.480469 33.765625 -9.585938 35.433594 -7.3125 C 36.394531 -5.886719 37.171875 -5.8125 37.949219 -7.386719 C 38.707031 -8.765625 39.632812 -10.246094 40.511719 -11.652344 C 41.480469 -13.207031 42.433594 -14.570312 43.386719 -15.929688 C 44.457031 -17.316406 44.003906 -17.910156 42.421875 -18.175781 C 39.628906 -18.480469 35.816406 -19.625 32.925781 -21.429688 C 36.625 -26.527344 41.3125 -32.554688 41.3125 -32.554688 C 43.996094 -31.085938 49.679688 -28.15625 52.449219 -21.382812 C 53.300781 -19.617188 54.347656 -19.480469 55.363281 -21.109375 C 57.777344 -25.46875 59.347656 -27.984375 61.652344 -31.179688 C 62.675781 -32.492188 62.59375 -33.675781 61.121094 -34.285156 C 54.328125 -37.085938 42.675781 -44.464844 35.53125 -50.160156 C 34.214844 -51.183594 33.132812 -50.933594 32.550781 -49.34375 C 30.65625 -44.660156 26.203125 -34.0625 19.730469 -23.699219 C 13.214844 -13.257812 5.695312 -4.675781 2.320312 -0.917969 C 1.148438 0.304688 1.398438 1.386719 2.898438 2.117188 Z M 2.898438 2.117188 "/></g></g></g></svg>